PathFileType	4	(X/Y/Z)	D:\Share\Shared_Data\Ergonomics\Sit To Stand Pertubation\S3\Unperturbed.trc
DataRate	CameraRate	NumFrames	NumMarkers	Units	OrigDataRate	OrigDataStartFrame	OrigNumFrames	
100	100	6	18	m	100	1536	191
Frame#	Time	R_Thigh			R_ASIS			R_Pelvis			V_Sacral			L_Pelvis			L_ASIS			Clavical			R_Acromium			L_Acromium			Sternum			Torso			R_Thigh_Med			R_Thigh_Lat			R_Shank_Med			R_Shank_Lat			R_Shank			R_Heel			R_Toe			
		X1	Y1	Z1	X2	Y2	Z2	X3	Y3	Z3	X4	Y4	Z4	X5	Y5	Z5	X6	Y6	Z6	X7	Y7	Z7	X8	Y8	Z8	X9	Y9	Z9	X10	Y10	Z10	X11	Y11	Z11	X12	Y12	Z12	X13	Y13	Z13	X14	Y14	Z14	X15	Y15	Z15	X16	Y16	Z16	X17	Y17	Z17	X18	Y18	Z18	

1536	15.35	0.31351215	0.62036993	0.11476119	0.20633057	0.72713623	0.13283179	0.11098841	0.77772418	0.18820767	0.021761908	0.83507104	-0.0077097964	0.12906857	0.79528888	-0.20940773	0.221856	0.73387842	-0.14669795	0.4059697	1.0865884	-0.0069551692	0.38974384	1.1616074	0.15597044	0.41159518	1.1533171	-0.15854442	0.3896629	1.0024995	-0.0024693675	0.40537604	1.0671566	-0.068361526	0.42993481	0.44180798	0.087853798	0.39690582	0.42040387	0.19623244	0.26418326	0.10521525	0.092833046	0.23859874	0.09651664	0.17114706	0.29994376	0.26371567	0.19751953	0.18089813	0.052019623	0.12209713	0.40005563	0.053422173	0.1367847
1537	15.36	0.31722131	0.62306317	0.11518906	0.21047942	0.73535364	0.13262674	0.11475781	0.78510919	0.1877151	0.025667231	0.84238416	-0.0079137173	0.13286099	0.80243158	-0.20957295	0.22521275	0.74127667	-0.14667073	0.40745508	1.097278	-0.0074596677	0.39047348	1.1721512	0.15555223	0.41197247	1.1639186	-0.15917555	0.39206085	1.0131168	-0.0030781968	0.40704752	1.0778368	-0.068891479	0.42928275	0.44197852	0.087550026	0.39631348	0.42104153	0.19567374	0.26414197	0.10520195	0.093126831	0.23865437	0.096119377	0.1711107	0.29950726	0.26414352	0.19731172	0.18090599	0.052058571	0.12216521	0.40001584	0.053470085	0.13679756
1538	15.37	0.32080893	0.62575079	0.11559976	0.21466104	0.74373126	0.13239716	0.11857616	0.79254352	0.18723647	0.029556311	0.84983014	-0.0081672583	0.13662369	0.8096535	-0.20973175	0.2283768	0.74876947	-0.14671974	0.40873962	1.1081797	-0.0079520402	0.39096133	1.1829044	0.15514636	0.41204572	1.1747405	-0.15981746	0.39432239	1.0239582	-0.0036374424	0.40853986	1.0887196	-0.069399925	0.42831509	0.44220749	0.087225006	0.3955141	0.42176263	0.19510794	0.26403378	0.10525769	0.093216202	0.23868625	0.095786873	0.17108003	0.29893896	0.26461261	0.19709599	0.18089853	0.052090706	0.12222758	0.39996655	0.053525333	0.136811
1539	15.38	0.32425964	0.62842621	0.11599344	0.21886958	0.75223413	0.13214018	0.12246085	0.80000433	0.18677344	0.033438263	0.85736334	-0.0084615126	0.14037657	0.81693536	-0.20988358	0.23134712	0.75636084	-0.14686	0.40982159	1.1192548	-0.008428483	0.39120248	1.1938367	0.15475484	0.41184473	1.1857396	-0.16046442	0.39643808	1.0349893	-0.0041310086	0.40984528	1.0997698	-0.069891258	0.42708093	0.4424993	0.086891304	0.39451291	0.42256659	0.19454385	0.26385913	0.1053853	0.093099098	0.23869513	0.095532021	0.1710567	0.29824344	0.26512265	0.19687526	0.18087326	0.052127308	0.12229237	0.39990793	0.053588867	0.13682512
1540	15.39	0.32756818	0.63108667	0.11637498	0.22309853	0.76082697	0.13185617	0.12641901	0.80747162	0.18632454	0.037317223	0.86490735	-0.0087620277	0.14413484	0.82425732	-0.21002495	0.2341575	0.76405994	-0.14709619	0.41069955	1.1304639	-0.0088859921	0.3911951	1.2049138	0.15438019	0.41140836	1.1968715	-0.16110643	0.39839246	1.046173	-0.0045506549	0.41095755	1.1109535	-0.070370224	0.42565314	0.4428634	0.086562279	0.39331812	0.42345142	0.19398367	0.26363565	0.10556483	0.09283831	0.23868451	0.095349136	0.17103804	0.2974256	0.26567285	0.19665088	0.18083189	0.052174656	0.12236499	0.39984067	0.053661552	0.13683968
1541	15.4	0.33073978	0.63373004	0.11675264	0.22734454	0.7694743	0.13154927	0.1304474	0.81492773	0.18588635	0.041192982	0.872367	-0.0090193853	0.14790863	0.83159802	-0.21015125	0.23689915	0.77187262	-0.14741669	0.41137311	1.1417671	-0.0093223467	0.3909407	1.2160964	0.15402464	0.41076828	1.2080902	-0.16173459	0.40016263	1.0574711	-0.0048978477	0.41187177	1.1222375	-0.070841393	0.42410934	0.44331	0.086250748	0.39193936	0.42441327	0.19342474	0.26338992	0.10576464	0.092528969	0.23865805	0.095226494	0.17102174	0.29649097	0.26626111	0.19642293	0.18078001	0.052229702	0.12244455	0.39976602	0.053743896	0.13685406
